<svg width="174" height="51" viewBox="0 0 174 51" fill="none" xmlns="http://www.w3.org/2000/svg">
    <path d="M0.946533 42.8927L0.962099 42.4875C1.19339 42.3687 1.58131 42.263 2.12342 42.1738C2.66578 42.0838 3.03958 41.9943 3.24509 41.9045C3.45085 41.8146 3.62207 41.6958 3.75923 41.5472C3.8536 41.082 3.90175 40.2424 3.90175 39.027V26.6919L3.94943 24.6468C3.94943 24.224 3.86576 23.9342 3.69891 23.7754C3.53257 23.6165 3.09577 23.4691 2.38852 23.3323C1.68175 23.1956 1.2649 23.0834 1.13745 22.9956C1.00977 22.9082 0.946533 22.8153 0.946533 22.7168C0.946533 22.6619 0.962099 22.5908 0.993478 22.5031C1.13162 22.4158 1.27463 22.3718 1.42298 22.3718C1.5818 22.3718 1.90502 22.3831 2.39241 22.4043H2.83748C2.98584 22.4043 3.40366 22.3938 4.0934 22.3718H6.30242L10.8638 22.2983L15.6959 22.1221H16.1244L16.8088 22.1063C16.9985 22.1063 17.1687 22.1598 17.3168 22.2652C17.3808 22.4344 17.4175 22.5562 17.4285 22.6299L17.4122 23.2643L17.553 26.1033C17.553 26.2206 17.5423 26.3683 17.5216 26.5475C17.3543 26.6215 17.2016 26.6586 17.0656 26.6586C16.9718 26.6586 16.8983 26.6272 16.8462 26.5629C16.7621 26.446 16.71 26.223 16.6891 25.8925C16.6475 25.4351 16.4839 24.8444 16.2003 24.1204C16.0636 23.7796 15.8379 23.5458 15.5217 23.4184C14.8909 23.1742 13.8299 23.052 12.3376 23.052C11.6324 23.052 10.9752 23.0708 10.3665 23.1073C9.7563 23.1443 9.3836 23.1629 9.247 23.1629L8.01784 23.1467C7.51265 23.1467 7.097 23.2213 6.77112 23.3688C6.55022 23.4637 6.44039 23.6906 6.44039 24.0491V24.2868C6.47152 24.8256 6.48796 25.4221 6.48796 26.0758L6.44039 30.3829C6.44039 30.8057 6.47152 31.2069 6.53428 31.5866L6.98729 31.6177L7.86119 31.5701H10.8441C12.0419 31.5701 12.8747 31.4857 13.3433 31.3155C13.6558 31.199 13.8898 31.0238 14.0455 30.7907C14.098 30.7161 14.2284 30.297 14.4366 29.5327L14.6396 28.2111C14.7668 28.1476 14.8622 28.1154 14.9256 28.1154C14.9794 28.1154 15.0636 28.1423 15.1805 28.1953C15.2328 28.4395 15.2647 28.8109 15.279 29.3089L15.5137 35.1628C15.3221 35.2376 15.1764 35.2745 15.0748 35.2745L14.8891 35.2424C14.7214 34.1891 14.4599 33.3625 14.1047 32.7615C13.9794 32.5509 13.8383 32.4302 13.6814 32.3979C13.4097 32.3352 12.1647 32.3031 9.94794 32.3031C9.25846 32.3031 8.78315 32.3093 8.52178 32.3191C7.89332 32.3514 7.51626 32.3669 7.39174 32.3669H7.23509C6.92042 32.3669 6.69566 32.4088 6.56068 32.4934C6.51822 32.6203 6.49754 32.7102 6.49754 32.7628V33.8566C6.49754 33.9835 6.50265 34.5112 6.51311 35.4405L6.48223 40.685C6.48223 40.8342 6.52407 41.0191 6.60912 41.2408C6.83189 41.4198 7.23783 41.5388 7.82657 41.597C8.41669 41.6549 8.97069 41.7979 9.49119 42.0239C9.78743 42.1649 9.93673 42.3209 9.93673 42.4926C9.93673 42.5696 9.91531 42.6385 9.87198 42.7035C9.82964 42.7675 9.7548 42.817 9.64871 42.8492C8.77618 42.6831 7.56831 42.5997 6.02424 42.5997C5.20488 42.5997 4.33733 42.6761 3.42142 42.8277C2.79321 42.9257 2.07478 42.9741 1.26562 42.9741L0.946533 42.8927Z" fill="#5299D5"/>
    <path d="M20.5581 23.0554C20.5581 23.4774 20.6906 23.8201 20.9565 24.0835C21.2228 24.3477 21.5523 24.4793 21.9458 24.4793C22.3398 24.4793 22.6852 24.3336 22.9833 24.0435C23.2806 23.7538 23.4299 23.4453 23.4299 23.1187C23.4299 22.792 23.2806 22.4855 22.9833 22.2009C22.6852 21.9159 22.3398 21.7738 21.9458 21.7738C21.563 21.7738 21.2357 21.9007 20.9642 22.1535C20.6931 22.407 20.5581 22.7072 20.5581 23.0554ZM19.1844 31.3048C19.9325 31.4725 20.4214 31.6376 20.6513 31.7991C20.881 31.9609 21.0234 32.1048 21.0764 32.2296C21.1403 32.4078 21.1719 32.8571 21.1719 33.5778C21.1719 37.184 21.1612 39.3894 21.1408 40.1931C21.1408 40.6748 21.0499 41.0242 20.8699 41.2439C20.7629 41.3907 20.5403 41.4958 20.2001 41.5579C19.1563 41.7781 18.6141 41.8968 18.5719 41.9178C18.3695 42.0146 18.269 42.1466 18.269 42.314C18.269 42.3739 18.2953 42.4463 18.3492 42.5305C18.4668 42.5669 18.5521 42.5836 18.6061 42.5836C18.905 42.5508 19.2149 42.5305 19.5367 42.5215C21.1088 42.48 21.9641 42.4595 22.1035 42.4595C22.3924 42.4595 22.9797 42.4836 23.8682 42.5316C24.5202 42.5601 25.055 42.5777 25.4724 42.5836C25.5256 42.4824 25.5526 42.3973 25.5526 42.3292C25.5526 42.2737 25.5363 42.2055 25.5054 42.1263C25.2929 42.0421 24.975 41.9425 24.5513 41.8269C23.8743 41.6384 23.4669 41.4674 23.329 41.3155C23.191 41.1627 23.1278 40.8921 23.1385 40.5035L23.1862 35.699L23.1701 31.1624V30.3279C23.191 29.9077 23.202 29.6719 23.202 29.619C23.202 29.3882 23.1813 29.0208 23.1385 28.516L22.944 28.4999C22.8688 28.4999 22.7659 28.5109 22.6365 28.5318C22.3444 28.965 21.9853 29.3547 21.5582 29.7029C21.1311 30.0516 20.7245 30.3101 20.3349 30.4784C20.2813 30.5102 19.9032 30.6262 19.2005 30.8262L19.1844 31.3048Z" fill="#5299D5"/>
    <path d="M26.3577 42.7093L26.2934 42.5022C26.2934 42.4272 26.3411 42.3162 26.4362 42.1681L27.3694 41.9756L28.6827 41.7359C28.7878 41.6836 28.8622 41.6086 28.9038 41.5125C28.9673 41.3745 28.9991 40.9637 28.9991 40.282C28.9991 36.6597 28.978 34.5691 28.9356 34.0094C28.8936 33.45 28.7992 33.0956 28.6524 32.9461C28.5057 32.7974 28.1275 32.6804 27.5192 32.5944C27.1612 32.5419 26.8777 32.4732 26.6685 32.3866L26.7317 31.9084C27.8325 31.4517 28.573 31.0582 28.951 30.7292C29.4756 30.2511 29.9216 29.6241 30.2888 28.8492L30.8548 28.8652C30.9211 29.3966 30.9553 30.5758 30.9553 32.4033L30.9392 32.6738C30.9392 32.7371 30.9489 32.8392 30.9708 32.9768C31.372 32.2433 31.8721 31.5675 32.4743 30.951L32.8372 30.5841C32.9851 30.4137 33.1276 30.2808 33.2645 30.1851C34.0022 29.739 34.5501 29.5154 34.9096 29.5154C35.3733 29.5154 35.7527 29.6724 36.048 29.9859C36.3427 30.2994 36.4912 30.685 36.4912 31.142C36.4912 31.5041 36.3861 31.7865 36.1745 31.9884C35.8905 32.2541 35.5642 32.3866 35.196 32.3866C35.027 32.3866 34.6951 32.2973 34.2016 32.1165C33.7065 31.9365 33.38 31.8457 33.2227 31.8457C32.9272 31.8457 32.7224 31.8941 32.6067 31.989C32.3118 32.2231 31.9533 32.7013 31.5319 33.4231C31.2053 33.9647 31.0423 34.4644 31.0423 34.9205L31.1219 37.5572L31.1533 40.7199C31.1855 41.082 31.2273 41.3167 31.2811 41.423C31.323 41.4982 31.4295 41.5883 31.6 41.6953C32.7471 41.7908 33.4282 41.86 33.6412 41.9019C33.7894 41.9135 33.901 41.9243 33.9757 41.935C34.4324 41.9457 34.7512 42.0086 34.9321 42.1263C35.0283 42.1801 35.0757 42.2605 35.0757 42.3687C35.0757 42.4325 35.0331 42.518 34.9482 42.6255L33.1801 42.5836L32.5098 42.5682L31.5368 42.5836H29.9119L29.0349 42.6463L26.3577 42.7093Z" fill="#5299D5"/>
    <path d="M38.7963 38.5882C39.185 39.6079 39.4787 40.2683 39.6782 40.5689C40.077 41.1806 40.5545 41.6549 41.1111 41.993C41.6671 42.3317 42.2705 42.5009 42.9225 42.5009C43.5208 42.5009 44.1138 42.2378 44.7013 41.712C45.1209 41.3143 45.331 40.8513 45.331 40.3244C45.331 39.6265 45.0861 38.9817 44.5977 38.3906C44.1085 37.8108 43.1794 37.2574 41.8072 36.7326C40.435 36.2068 39.5074 35.6471 39.024 35.0521C38.5389 34.458 38.2972 33.7795 38.2972 33.0145C38.2972 32.2929 38.4908 31.6559 38.8804 31.1039C39.269 30.5525 39.8046 30.1357 40.4885 29.854C41.171 29.5728 41.8013 29.4318 42.3797 29.4318C43.1254 29.4318 43.7954 29.4927 44.39 29.6139C44.9835 29.7345 45.4956 29.9208 45.9261 30.1734C46.0103 30.7119 46.0784 31.5024 46.1324 32.5464L46.1633 33.0529C46.023 33.064 45.9038 33.0691 45.8069 33.0691H45.5806C45.269 32.1939 44.7931 31.5006 44.1537 30.9896C43.5147 30.4784 42.8832 30.2229 42.2598 30.2229C41.6352 30.2229 41.1315 30.4158 40.7468 30.8008C40.3618 31.1866 40.1702 31.691 40.1702 32.3144C40.1702 32.7893 40.3266 33.2112 40.6381 33.5814C40.9501 33.9512 41.6803 34.3706 42.8281 34.8396C43.9768 35.3095 44.8174 35.7492 45.3512 36.1588C45.8843 36.5683 46.2788 37.0663 46.5323 37.6514C46.7852 38.2368 46.9126 38.7944 46.9126 39.3267C46.9126 40.0612 46.6726 40.7474 46.193 41.3852C45.7131 42.0239 45.1131 42.4738 44.3912 42.7346C43.6696 42.9944 43.024 43.1251 42.4542 43.1251C41.1158 43.1251 39.8834 42.8971 38.7559 42.4428C38.6499 42.3573 38.5927 42.1959 38.582 41.9592C38.582 41.8629 38.5706 41.7069 38.5501 41.4916C38.3814 40.0399 38.2972 39.1804 38.2972 38.9112C38.2972 38.7826 38.3235 38.696 38.3777 38.6533C38.431 38.6096 38.5706 38.5882 38.7963 38.5882Z" fill="#5299D5"/>
    <path d="M52.898 26.9346L53.4058 26.9498L53.4699 28.4512L53.4383 30.3949C53.6411 30.4053 53.7704 30.4107 53.8233 30.4107C54.1014 30.4107 54.6306 30.3901 55.4115 30.3474C55.9142 30.3164 56.3956 30.3 56.8559 30.3C57.069 30.3 57.3902 30.3053 57.8185 30.3157C57.8392 30.528 57.8499 30.6976 57.8499 30.8245C57.8499 30.9621 57.8175 31.1787 57.7544 31.4756H57.4809L54.9983 31.5544L53.7654 31.5866L53.477 31.6177C53.3916 31.8815 53.3494 32.1881 53.3494 32.5365L53.3969 34.9128L53.3649 39.0945C53.3649 40.1931 53.5094 40.9215 53.7983 41.2803C54.0756 41.6503 54.4926 41.8349 55.0496 41.8349C55.3273 41.8349 55.8509 41.749 56.6214 41.577C56.8564 41.5236 57.1716 41.3463 57.5676 41.0438H57.7113C57.808 41.0438 57.8856 41.0737 57.9442 41.1328C58.0014 41.1913 58.0325 41.2687 58.0325 41.3638L58.017 41.4764C57.5597 41.9787 57.0378 42.3442 56.4497 42.5729C55.8611 42.8022 55.0782 42.9169 54.1027 42.9169C53.4137 42.9169 52.8429 42.758 52.3928 42.4416C51.9421 42.1243 51.6527 41.749 51.5262 41.316C51.3984 40.8833 51.3356 39.9369 51.3356 38.4768L51.3988 34.9104L51.3825 33.1978V32.5633C51.3825 32.2678 51.3718 31.9723 51.3507 31.6756L51.0768 31.6606L49.7594 31.706L49.6298 31.7209C49.5115 31.7209 49.4229 31.6953 49.3647 31.6418C49.306 31.5887 49.2764 31.5245 49.2764 31.4496C49.2764 31.3224 49.315 31.2193 49.3938 31.1388C49.4726 31.0595 49.7114 30.9343 50.1103 30.7638C50.3831 30.648 50.7008 30.4301 51.0626 30.1095C51.4251 29.7894 51.7319 29.4348 51.9845 29.0462C52.11 28.836 52.2877 28.4365 52.5196 27.8485C52.6878 27.4179 52.8131 27.1135 52.898 26.9346Z" fill="#5299D5"/>
    <path d="M84.8299 23.212C84.9564 24.0238 85.0203 24.8555 85.0203 25.708C85.0203 25.877 85.0157 26.1033 85.0047 26.3875C84.8569 26.4197 84.7457 26.4347 84.6716 26.4347C84.6084 26.4347 84.5178 26.4245 84.4019 26.4029C83.9575 25.1713 83.234 24.2234 82.2297 23.5598C81.2258 22.8965 79.9837 22.564 78.5043 22.564C77.7221 22.564 77.0616 22.6542 76.5226 22.833C75.5721 23.1595 74.7367 23.6088 74.0178 24.182C73.2992 24.7558 72.6917 25.44 72.1945 26.2347C71.6979 27.0293 71.3049 27.9927 71.0135 29.1238C70.7226 30.2558 70.5787 31.4107 70.5787 32.5891C70.5787 34.8417 70.9216 36.7018 71.6081 38.1706C72.2952 39.6391 73.2357 40.685 74.431 41.3119C75.6247 41.9381 76.8301 42.2505 78.0452 42.2505L78.7903 42.2355C79.6357 42.1307 80.2111 42.0313 80.5185 41.9365C81.2896 41.7165 81.927 41.4561 82.4287 41.1572C82.9307 40.8581 83.4215 40.436 83.9036 39.8903C84.3838 39.3447 84.7934 38.71 85.132 37.986L85.3224 37.9225C85.3749 37.9225 85.4547 37.9541 85.5612 38.0165C85.5512 38.2688 85.5398 38.4312 85.5291 38.5046C85.0848 40.2791 84.7615 41.4903 84.5607 42.1412C84.3912 42.185 84.1789 42.252 83.9255 42.3393C82.686 42.7804 81.0273 43.0004 78.952 43.0004C77.2776 43.0004 76.0245 42.8862 75.1933 42.6601C74.362 42.433 73.4558 42.0791 72.4751 41.599C71.496 41.1197 70.6351 40.4832 69.8933 39.6916C69.152 38.8999 68.5527 37.8995 68.0979 36.6907C67.6427 35.4824 67.4146 34.1653 67.4146 32.7398C67.4146 31.3896 67.595 30.2098 67.9545 29.2015C68.3148 28.1936 68.8713 27.1726 69.6236 26.1373C70.3753 25.1038 71.263 24.2435 72.2852 23.5575C73.3075 22.8711 74.4437 22.3855 75.6933 22.1001C76.5728 21.9095 77.8175 21.8153 79.428 21.8153C80.6035 21.8153 81.7102 21.9732 82.7482 22.2893C83.7863 22.6057 84.48 22.9129 84.8299 23.212Z" fill="#5299D5"/>
    <path d="M93.0034 41.3649C93.6238 41.0623 94.2711 40.5924 94.9457 39.9555C95.0196 38.6294 95.0566 37.695 95.0566 37.1511C95.0566 36.8695 95.0405 36.4884 95.0096 36.0077C94.2924 36.2591 93.5329 36.6403 92.7305 37.1517C91.9279 37.6645 91.2905 38.2532 90.8199 38.9213C90.478 39.4023 90.3068 39.857 90.3068 40.2841C90.3068 40.6915 90.4482 41.0313 90.7314 41.3029C91.0147 41.5744 91.3706 41.7101 91.799 41.7101C92.131 41.7101 92.5324 41.5958 93.0034 41.3649ZM99.1921 40.5298C99.2431 40.4985 99.3584 40.4623 99.536 40.4197C99.5978 40.5575 99.6299 40.6575 99.6299 40.7214C99.6299 40.8797 99.5034 41.1602 99.251 41.5627C98.9243 42.0916 98.5617 42.4774 98.1614 42.7212C97.9094 42.8791 97.5621 42.9586 97.1201 42.9586C96.3619 42.9586 95.795 42.7238 95.4151 42.2553C95.1833 41.9794 95.0208 41.4843 94.9264 40.7703L93.1461 42.0193C92.5204 42.3833 92.044 42.6125 91.7149 42.7093C91.1847 42.8475 90.549 42.9169 89.8082 42.9169C89.2663 42.9169 88.8401 42.7548 88.5278 42.4335C88.2152 42.1117 88.0595 41.6977 88.0595 41.1905C88.0595 40.4623 88.5069 39.59 89.4045 38.5762C90.3019 37.5625 91.5199 36.7332 93.0601 36.0889C94.1431 35.6349 94.807 35.3438 95.0512 35.2173C95.0721 34.8656 95.0828 34.4823 95.0828 34.0662C95.0828 32.7126 94.8956 31.7967 94.5194 31.3167C94.1431 30.8373 93.6071 30.5972 92.9085 30.5972C92.179 30.5972 91.4957 30.8847 90.8618 31.459C90.4701 31.8215 90.1751 32.5019 89.973 33.5025C89.9083 33.7795 89.7848 34.0769 89.6026 34.3963C89.1399 34.6936 88.7697 34.8423 88.4905 34.8423C88.2535 34.8423 88.0391 34.7736 87.8455 34.6351C87.7375 34.561 87.6844 34.477 87.6844 34.3802C87.6844 34.1044 87.9792 33.4802 88.5683 32.5073C89.1578 31.5353 89.8996 30.8074 90.798 30.3235C91.6944 29.8403 92.4781 29.5982 93.1474 29.5982C94.0609 29.5982 94.7389 29.6809 95.1849 29.845C95.6315 30.0092 96.0238 30.2976 96.364 30.7095C96.7041 31.1223 96.9111 31.5729 96.9852 32.0591C97.028 32.2917 97.0489 33.1234 97.0489 34.5509L97.0022 37.0753L97.016 38.9159C97.016 39.1601 97.0114 39.3661 97.0022 39.5354C96.991 39.8423 96.9852 40.0694 96.9852 40.2187C96.9852 40.5677 97.0854 40.8479 97.2836 41.06C97.4814 41.2713 97.7159 41.3768 97.9882 41.3768C98.3834 41.3768 98.7222 41.1788 99.0029 40.7805L99.1921 40.5298Z" fill="#5299D5"/>
    <path d="M100.492 42.7093L100.429 42.5022C100.429 42.4272 100.476 42.3162 100.571 42.1681L101.505 41.9756L102.817 41.7359C102.923 41.6836 102.997 41.6086 103.039 41.5125C103.103 41.3745 103.133 40.9637 103.133 40.282C103.133 36.6597 103.113 34.5691 103.07 34.0094C103.028 33.45 102.934 33.0956 102.788 32.9461C102.64 32.7974 102.263 32.6804 101.654 32.5944C101.296 32.5419 101.013 32.4732 100.803 32.3866L100.866 31.9084C101.968 31.4517 102.708 31.0582 103.086 30.7292C103.61 30.2511 104.057 29.6241 104.424 28.8492L104.99 28.8652C105.056 29.3966 105.09 30.5758 105.09 32.4033L105.074 32.6738C105.074 32.7371 105.084 32.8392 105.105 32.9768C105.506 32.2433 106.008 31.5675 106.609 30.951L106.973 30.5841C107.119 30.4137 107.262 30.2808 107.399 30.1851C108.137 29.739 108.685 29.5154 109.044 29.5154C109.508 29.5154 109.887 29.6724 110.182 29.9859C110.478 30.2994 110.625 30.685 110.625 31.142C110.625 31.5041 110.52 31.7865 110.309 31.9884C110.026 32.2541 109.699 32.3866 109.331 32.3866C109.162 32.3866 108.831 32.2973 108.335 32.1165C107.841 31.9365 107.515 31.8457 107.357 31.8457C107.062 31.8457 106.857 31.8941 106.741 31.989C106.446 32.2231 106.088 32.7013 105.667 33.4231C105.34 33.9647 105.178 34.4644 105.178 34.9205L105.257 37.5572L105.288 40.7199C105.32 41.082 105.362 41.3167 105.416 41.423C105.459 41.4982 105.565 41.5883 105.734 41.6953C106.883 41.7908 107.563 41.86 107.776 41.9019C107.924 41.9135 108.037 41.9243 108.11 41.935C108.568 41.9457 108.886 42.0086 109.067 42.1263C109.163 42.1801 109.21 42.2605 109.21 42.3687C109.21 42.4325 109.168 42.518 109.083 42.6255L107.315 42.5836L106.644 42.5682L105.672 42.5836H104.047L103.17 42.6463L100.492 42.7093Z" fill="#5299D5"/>
    <path d="M115.241 31.7374C114.679 32.4409 114.399 33.1012 114.399 33.7186H115.132C115.662 33.7186 117.243 33.6357 119.878 33.4691C120.293 33.4482 120.548 33.4051 120.641 33.3407C120.829 33.138 120.923 32.9568 120.923 32.7968C120.923 32.4667 120.819 32.0899 120.61 31.6684C120.402 31.2469 120.082 30.9211 119.65 30.6916C119.218 30.463 118.717 30.3474 118.145 30.3474C116.937 30.3474 115.97 30.811 115.241 31.7374ZM123.17 34.038V34.2599L116.891 34.348L115.684 34.3222C115.198 34.3222 114.703 34.3432 114.196 34.3849C114.102 34.6984 114.055 34.9118 114.055 35.0267L114.071 35.1833V35.3397L114.055 36.1068C114.055 36.7433 114.256 37.5243 114.662 38.4472C115.067 39.3712 115.646 40.0755 116.397 40.5611C117.15 41.0457 118.088 41.304 119.213 41.3355C119.813 41.3048 120.291 41.2324 120.649 41.1197C121.006 41.0059 121.51 40.7436 122.164 40.332L123.3 39.421L123.393 40.0388C123.393 40.111 123.389 40.1883 123.378 40.2706C122.903 40.8742 122.301 41.402 121.57 41.8577C120.842 42.3125 120.103 42.645 119.354 42.8571C118.995 42.952 118.402 43.0004 117.579 43.0004C116.828 43.0004 116.09 42.8475 115.361 42.5418C114.283 42.0791 113.435 41.3334 112.818 40.3057C112.199 39.2784 111.891 38.0323 111.891 36.5678C111.891 36.1051 111.977 35.5091 112.151 34.7823C112.326 34.0551 112.639 33.2813 113.091 32.4592C113.396 31.901 113.77 31.4427 114.213 31.0836C114.844 30.5782 115.398 30.2256 115.871 30.025C116.556 29.7411 117.35 29.5982 118.257 29.5982C119.235 29.5982 120.037 29.7785 120.659 30.1372C121.5 30.6134 122.129 31.2259 122.545 31.9764C122.961 32.7269 123.17 33.4144 123.17 34.038Z" fill="#5299D5"/>
    <path d="M171.892 25.1116C173.852 20.6021 173.14 18.2503 173.107 18.1523L173.131 18.3046C173.134 17.9995 173.129 10.7705 167.83 5.66957C164.52 2.48516 159.897 0.870726 154.085 0.870726C135.915 0.870726 134.264 11.7526 133.377 17.5986L133.244 18.4649C133.198 18.8558 133.107 20.1006 133.686 20.6534C133.771 20.7341 133.611 21.1603 133.227 21.5615C132.839 21.9657 129.37 26.095 128.891 26.9171C128.479 27.6249 128.541 28.7315 129.025 29.3339C129.354 29.7426 129.846 29.9048 130.375 29.7781C131.387 29.5369 133.511 29.9187 133.788 30.2289C133.785 30.2244 134.004 30.3208 133.776 30.5361C133.76 30.5505 133.745 30.565 133.73 30.5797C133.26 31.0345 132.755 31.6202 132.836 32.1967C132.883 32.5465 133.017 32.7256 133.178 32.8627C133.335 32.995 133.357 32.9429 133.217 33.0932C133.015 33.3076 132.873 33.5807 132.75 33.872C132.655 34.4152 132.806 35.1432 133.492 35.5553C133.766 35.7201 133.838 35.6491 133.945 35.9634C134.138 36.5311 134.339 37.5656 134.031 38.3026C133.615 39.0943 133.862 40.9775 134.529 42.1048C134.984 42.8738 135.606 43.3089 136.331 43.3626C136.803 43.398 137.751 43.4009 138.95 43.4049C142.079 43.4147 147.904 43.4326 149.444 44.1978C150.779 44.8608 151.123 46.2829 151.177 47.3594C151.174 47.431 151.073 49.8534 147.16 49.8534H0.489075V50.3621V50.8707H147.16C152.159 50.8707 152.243 47.3738 152.243 47.3385C152.145 45.385 151.348 43.9963 149.936 43.2947C148.303 42.4836 143.614 42.4015 138.953 42.3869C137.775 42.3833 136.847 42.3804 136.413 42.348C136.055 42.3213 135.733 42.0707 135.457 41.6038C134.865 40.6039 134.794 39.1195 134.984 38.7578C135.429 37.9053 135.26 36.7546 135.107 36.132C135.04 35.8574 135.192 35.6781 135.09 35.4074C134.979 35.1169 134.684 34.9534 134.179 34.7524C133.986 34.6755 133.867 34.5503 133.816 34.37C133.717 33.8258 134.249 33.7095 134.65 33.4243C134.65 33.4238 134.705 33.3855 134.705 33.3855C135.05 33.1431 134.979 32.8589 134.934 32.7476C134.775 32.5352 134.611 32.4083 134.425 32.4189C134.361 32.4225 134.314 32.4328 134.249 32.4243C134.007 32.393 133.883 32.2774 133.893 32.0741C133.893 32.0514 133.924 31.8337 134.529 31.2558C134.529 31.2564 134.606 31.183 134.606 31.183C135.139 30.6859 135.095 30.3654 134.705 29.7106C134.161 28.8001 131.219 28.5275 130.116 28.7907C129.998 28.8193 129.939 28.8014 129.871 28.7142C129.644 28.4318 129.619 27.7622 129.822 27.4114C130.233 26.7063 133.611 22.6673 134.012 22.2487C134.641 21.5929 135.131 20.5928 134.44 19.9336C134.305 19.8056 134.238 19.156 134.3 18.5966C134.298 18.6195 134.432 17.7445 134.432 17.7445C135.332 11.8141 136.837 1.8887 154.085 1.8887C159.603 1.8887 163.973 3.40189 167.073 6.38657C172.064 11.1899 172.066 18.2264 172.065 18.2969V18.3747L172.089 18.4491C172.094 18.4664 172.7 20.5955 170.908 24.7211L171.4 24.9164L171.892 25.1116Z" fill="#5299D5"/>
</svg>
